<svg width="1139" height="1004" viewBox="0 0 1139 1004" fill="none" xmlns="http://www.w3.org/2000/svg">
<path fill-rule="evenodd" clip-rule="evenodd" d="M130.172 380.95C149.245 380.95 238.628 427.586 248.18 442.507C257.732 457.428 257.732 550.732 248.18 565.653C238.628 580.574 149.245 627.21 130.172 627.21C111.098 627.21 21.7158 580.574 12.1639 565.653C2.61203 550.732 2.61203 457.428 12.1639 442.507C21.7158 427.586 111.098 380.95 130.172 380.95Z" stroke="url(#paint0_linear_106_4)" stroke-width="10"/>
<path fill-rule="evenodd" clip-rule="evenodd" d="M380.516 380.95C399.589 380.95 488.972 427.586 498.524 442.507C508.075 457.428 508.075 550.732 498.524 565.653C488.972 580.574 399.589 627.21 380.516 627.21C361.442 627.21 272.06 580.574 262.508 565.653C252.956 550.732 252.956 457.428 262.508 442.507C272.06 427.586 361.442 380.95 380.516 380.95Z" stroke="url(#paint1_linear_106_4)" stroke-width="10"/>
<path fill-rule="evenodd" clip-rule="evenodd" d="M630.859 380.95C649.933 380.95 739.315 427.586 748.867 442.507C758.419 457.428 758.419 550.732 748.867 565.653C739.315 580.574 649.933 627.21 630.859 627.21C611.786 627.21 522.403 580.574 512.851 565.653C503.3 550.732 503.3 457.428 512.851 442.507C522.403 427.586 611.786 380.95 630.859 380.95Z" stroke="url(#paint2_linear_106_4)" stroke-width="10"/>
<path fill-rule="evenodd" clip-rule="evenodd" d="M881.203 380.95C900.277 380.95 989.659 427.586 999.211 442.507C1008.76 457.428 1008.76 550.732 999.211 565.653C989.659 580.574 900.277 627.21 881.203 627.21C862.13 627.21 772.747 580.574 763.195 565.653C753.643 550.732 753.643 457.428 763.195 442.507C772.747 427.586 862.13 380.95 881.203 380.95Z" stroke="url(#paint3_linear_106_4)" stroke-width="10"/>
<path fill-rule="evenodd" clip-rule="evenodd" d="M257.797 813C276.87 813 366.253 766.364 375.805 751.443C385.357 736.522 385.357 643.218 375.805 628.297C366.253 613.376 276.87 566.74 257.797 566.74C238.723 566.74 149.341 613.376 139.789 628.297C130.237 643.218 130.237 736.522 139.789 751.443C149.341 766.364 238.723 813 257.797 813Z" stroke="url(#paint4_linear_106_4)" stroke-width="10"/>
<path fill-rule="evenodd" clip-rule="evenodd" d="M508.141 813C527.214 813 616.597 766.364 626.149 751.443C635.7 736.522 635.7 643.218 626.149 628.297C616.597 613.376 527.214 566.74 508.141 566.74C489.067 566.74 399.685 613.376 390.133 628.297C380.581 643.218 380.581 736.522 390.133 751.443C399.685 766.364 489.067 813 508.141 813Z" stroke="url(#paint5_linear_106_4)" stroke-width="10"/>
<path fill-rule="evenodd" clip-rule="evenodd" d="M758.484 813C777.558 813 866.94 766.364 876.492 751.443C886.044 736.522 886.044 643.218 876.492 628.297C866.94 613.376 777.558 566.74 758.484 566.74C739.411 566.74 650.028 613.376 640.476 628.297C630.925 643.218 630.925 736.522 640.476 751.443C650.028 766.364 739.411 813 758.484 813Z" stroke="url(#paint6_linear_106_4)" stroke-width="10"/>
<path fill-rule="evenodd" clip-rule="evenodd" d="M1008.83 813C1027.9 813 1117.28 766.364 1126.84 751.443C1136.39 736.522 1136.39 643.218 1126.84 628.297C1117.28 613.376 1027.9 566.74 1008.83 566.74C989.755 566.74 900.372 613.376 890.82 628.297C881.268 643.218 881.268 736.522 890.82 751.443C900.372 766.364 989.755 813 1008.83 813Z" stroke="url(#paint7_linear_106_4)" stroke-width="10"/>
<path fill-rule="evenodd" clip-rule="evenodd" d="M1005.83 193.015C986.755 193.015 897.372 239.651 887.82 254.572C878.268 269.493 878.268 362.797 887.82 377.718C897.372 392.639 986.755 439.275 1005.83 439.275C1024.9 439.275 1114.28 392.639 1123.84 377.718C1133.39 362.797 1133.39 269.493 1123.84 254.572C1114.28 239.651 1024.9 193.015 1005.83 193.015Z" stroke="url(#paint8_linear_106_4)" stroke-width="10"/>
<path fill-rule="evenodd" clip-rule="evenodd" d="M755.484 193.015C736.411 193.015 647.028 239.651 637.476 254.572C627.925 269.493 627.925 362.797 637.476 377.718C647.028 392.639 736.411 439.275 755.484 439.275C774.558 439.275 863.94 392.639 873.492 377.718C883.044 362.797 883.044 269.493 873.492 254.572C863.94 239.651 774.558 193.015 755.484 193.015Z" stroke="url(#paint9_linear_106_4)" stroke-width="10"/>
<path fill-rule="evenodd" clip-rule="evenodd" d="M505.141 193.015C486.067 193.015 396.685 239.651 387.133 254.572C377.581 269.493 377.581 362.797 387.133 377.718C396.685 392.639 486.067 439.275 505.141 439.275C524.214 439.275 613.597 392.639 623.149 377.718C632.7 362.797 632.7 269.493 623.149 254.572C613.597 239.651 524.214 193.015 505.141 193.015Z" stroke="url(#paint10_linear_106_4)" stroke-width="10"/>
<path fill-rule="evenodd" clip-rule="evenodd" d="M254.797 193.015C235.723 193.015 146.341 239.651 136.789 254.572C127.237 269.493 127.237 362.797 136.789 377.718C146.341 392.639 235.723 439.275 254.797 439.275C273.87 439.275 363.253 392.639 372.805 377.718C382.357 362.797 382.357 269.493 372.805 254.572C363.253 239.651 273.87 193.015 254.797 193.015Z" stroke="url(#paint11_linear_106_4)" stroke-width="10"/>
<path fill-rule="evenodd" clip-rule="evenodd" d="M883.829 999C864.755 999 775.373 952.364 765.821 937.443C756.269 922.522 756.269 829.218 765.821 814.297C775.373 799.376 864.755 752.74 883.829 752.74C902.902 752.74 992.285 799.376 1001.84 814.297C1011.39 829.218 1011.39 922.522 1001.84 937.443C992.285 952.364 902.902 999 883.829 999Z" stroke="url(#paint12_linear_106_4)" stroke-width="10"/>
<path fill-rule="evenodd" clip-rule="evenodd" d="M634.485 999C615.411 999 526.029 952.364 516.477 937.443C506.925 922.522 506.925 829.218 516.477 814.297C526.029 799.376 615.411 752.74 634.485 752.74C653.558 752.74 742.941 799.376 752.493 814.297C762.045 829.218 762.045 922.522 752.493 937.443C742.941 952.364 653.558 999 634.485 999Z" stroke="url(#paint13_linear_106_4)" stroke-width="10"/>
<path fill-rule="evenodd" clip-rule="evenodd" d="M385.141 999C366.068 999 276.685 952.364 267.133 937.443C257.581 922.522 257.581 829.218 267.133 814.297C276.685 799.376 366.068 752.74 385.141 752.74C404.215 752.74 493.597 799.376 503.149 814.297C512.701 829.218 512.701 922.522 503.149 937.443C493.597 952.364 404.215 999 385.141 999Z" stroke="url(#paint14_linear_106_4)" stroke-width="10"/>
<path fill-rule="evenodd" clip-rule="evenodd" d="M135.891 999C116.817 999 27.4346 952.364 17.8827 937.443C8.33083 922.522 8.33083 829.218 17.8827 814.297C27.4346 799.376 116.817 752.74 135.891 752.74C154.964 752.74 244.347 799.376 253.899 814.297C263.45 829.218 263.45 922.522 253.899 937.443C244.347 952.364 154.964 999 135.891 999Z" stroke="url(#paint15_linear_106_4)" stroke-width="10"/>
<path fill-rule="evenodd" clip-rule="evenodd" d="M132.172 5C151.245 5 240.628 51.6361 250.18 66.5569C259.732 81.4777 259.732 174.782 250.18 189.703C240.628 204.624 151.245 251.26 132.172 251.26C113.098 251.26 23.7158 204.624 14.1639 189.703C4.61203 174.782 4.61203 81.4777 14.1639 66.5569C23.7158 51.6361 113.098 5 132.172 5Z" stroke="url(#paint16_linear_106_4)" stroke-width="10"/>
<path fill-rule="evenodd" clip-rule="evenodd" d="M381.516 5C400.589 5 489.972 51.6361 499.524 66.5569C509.075 81.4777 509.075 174.782 499.524 189.703C489.972 204.624 400.589 251.26 381.516 251.26C362.442 251.26 273.06 204.624 263.508 189.703C253.956 174.782 253.956 81.4777 263.508 66.5569C273.06 51.6361 362.442 5 381.516 5Z" stroke="url(#paint17_linear_106_4)" stroke-width="10"/>
<path fill-rule="evenodd" clip-rule="evenodd" d="M630.859 5C649.933 5 739.315 51.6361 748.867 66.5569C758.419 81.4777 758.419 174.782 748.867 189.703C739.315 204.624 649.933 251.26 630.859 251.26C611.786 251.26 522.403 204.624 512.851 189.703C503.3 174.782 503.3 81.4777 512.851 66.5569C522.403 51.6361 611.786 5 630.859 5Z" stroke="url(#paint18_linear_106_4)" stroke-width="10"/>
<path fill-rule="evenodd" clip-rule="evenodd" d="M880.11 5C899.183 5 988.566 51.6361 998.118 66.5569C1007.67 81.4777 1007.67 174.782 998.118 189.703C988.566 204.624 899.183 251.26 880.11 251.26C861.036 251.26 771.654 204.624 762.102 189.703C752.55 174.782 752.55 81.4777 762.102 66.5569C771.654 51.6361 861.036 5 880.11 5Z" stroke="url(#paint19_linear_106_4)" stroke-width="10"/>
<defs>
<linearGradient id="paint0_linear_106_4" x1="130.172" y1="380.95" x2="130.172" y2="627.21" gradientUnits="userSpaceOnUse">
<stop offset="0.269231" stop-color="#776623"/>
<stop offset="0.49" stop-color="#A38B2A"/>
<stop offset="0.706731" stop-color="#776623"/>
</linearGradient>
<linearGradient id="paint1_linear_106_4" x1="380.516" y1="380.95" x2="380.516" y2="627.21" gradientUnits="userSpaceOnUse">
<stop offset="0.269231" stop-color="#776623"/>
<stop offset="0.49" stop-color="#A38B2A"/>
<stop offset="0.706731" stop-color="#776623"/>
</linearGradient>
<linearGradient id="paint2_linear_106_4" x1="630.859" y1="380.95" x2="630.859" y2="627.21" gradientUnits="userSpaceOnUse">
<stop offset="0.269231" stop-color="#776623"/>
<stop offset="0.49" stop-color="#A38B2A"/>
<stop offset="0.706731" stop-color="#776623"/>
</linearGradient>
<linearGradient id="paint3_linear_106_4" x1="881.203" y1="380.95" x2="881.203" y2="627.21" gradientUnits="userSpaceOnUse">
<stop offset="0.269231" stop-color="#776623"/>
<stop offset="0.49" stop-color="#A38B2A"/>
<stop offset="0.706731" stop-color="#776623"/>
</linearGradient>
<linearGradient id="paint4_linear_106_4" x1="257.797" y1="566.74" x2="257.797" y2="813" gradientUnits="userSpaceOnUse">
<stop stop-color="#776623"/>
<stop offset="1" stop-color="#837127"/>
</linearGradient>
<linearGradient id="paint5_linear_106_4" x1="508.141" y1="566.74" x2="508.141" y2="813" gradientUnits="userSpaceOnUse">
<stop stop-color="#776623"/>
<stop offset="1" stop-color="#837127"/>
</linearGradient>
<linearGradient id="paint6_linear_106_4" x1="758.484" y1="566.74" x2="758.484" y2="813" gradientUnits="userSpaceOnUse">
<stop stop-color="#776623"/>
<stop offset="1" stop-color="#837127"/>
</linearGradient>
<linearGradient id="paint7_linear_106_4" x1="1008.83" y1="566.74" x2="1008.83" y2="813" gradientUnits="userSpaceOnUse">
<stop offset="0.26" stop-color="#776623"/>
<stop offset="0.91" stop-color="#837127"/>
</linearGradient>
<linearGradient id="paint8_linear_106_4" x1="1005.83" y1="439.275" x2="1005.83" y2="193.015" gradientUnits="userSpaceOnUse">
<stop offset="0.26" stop-color="#776623"/>
<stop offset="0.91" stop-color="#837127"/>
</linearGradient>
<linearGradient id="paint9_linear_106_4" x1="755.484" y1="439.275" x2="755.484" y2="193.015" gradientUnits="userSpaceOnUse">
<stop offset="0.26" stop-color="#776623"/>
<stop offset="0.91" stop-color="#837127"/>
</linearGradient>
<linearGradient id="paint10_linear_106_4" x1="505.141" y1="439.275" x2="505.141" y2="193.015" gradientUnits="userSpaceOnUse">
<stop offset="0.26" stop-color="#776623"/>
<stop offset="0.91" stop-color="#837127"/>
</linearGradient>
<linearGradient id="paint11_linear_106_4" x1="254.797" y1="439.275" x2="254.797" y2="193.015" gradientUnits="userSpaceOnUse">
<stop offset="0.26" stop-color="#776623"/>
<stop offset="0.91" stop-color="#837127"/>
</linearGradient>
<linearGradient id="paint12_linear_106_4" x1="883.829" y1="752.74" x2="883.829" y2="999" gradientUnits="userSpaceOnUse">
<stop offset="0.259615" stop-color="#837127"/>
<stop offset="0.908654" stop-color="#3D3410"/>
</linearGradient>
<linearGradient id="paint13_linear_106_4" x1="634.485" y1="752.74" x2="634.485" y2="999" gradientUnits="userSpaceOnUse">
<stop offset="0.259615" stop-color="#837127"/>
<stop offset="0.908654" stop-color="#3D3410"/>
</linearGradient>
<linearGradient id="paint14_linear_106_4" x1="385.141" y1="752.74" x2="385.141" y2="999" gradientUnits="userSpaceOnUse">
<stop offset="0.259615" stop-color="#837127"/>
<stop offset="0.908654" stop-color="#3D3410"/>
</linearGradient>
<linearGradient id="paint15_linear_106_4" x1="135.891" y1="752.74" x2="135.891" y2="999" gradientUnits="userSpaceOnUse">
<stop offset="0.259615" stop-color="#837127"/>
<stop offset="0.908654" stop-color="#3D3410"/>
</linearGradient>
<linearGradient id="paint16_linear_106_4" x1="132.172" y1="251.26" x2="132.172" y2="5" gradientUnits="userSpaceOnUse">
<stop offset="0.259615" stop-color="#837127"/>
<stop offset="0.908654" stop-color="#3D3410"/>
</linearGradient>
<linearGradient id="paint17_linear_106_4" x1="381.516" y1="251.26" x2="381.516" y2="5" gradientUnits="userSpaceOnUse">
<stop offset="0.259615" stop-color="#837127"/>
<stop offset="0.908654" stop-color="#3D3410"/>
</linearGradient>
<linearGradient id="paint18_linear_106_4" x1="630.859" y1="251.26" x2="630.859" y2="5" gradientUnits="userSpaceOnUse">
<stop offset="0.259615" stop-color="#837127"/>
<stop offset="0.908654" stop-color="#3D3410"/>
</linearGradient>
<linearGradient id="paint19_linear_106_4" x1="880.11" y1="251.26" x2="880.11" y2="5" gradientUnits="userSpaceOnUse">
<stop offset="0.259615" stop-color="#837127"/>
<stop offset="0.908654" stop-color="#3D3410"/>
</linearGradient>
</defs>
</svg>
